<?xml version="1.0" standalone="no"?>
<!DOCTYPE svg PUBLIC "-//W3C//DTD SVG 20010904//EN"
 "http://www.w3.org/TR/2001/REC-SVG-20010904/DTD/svg10.dtd">
<svg version="1.0" xmlns="http://www.w3.org/2000/svg"
 width="300.000000pt" height="300.000000pt" viewBox="0 0 300.000000 300.000000"
 preserveAspectRatio="xMidYMid meet">
<metadata>
Created by potrace 1.10, written by Peter Selinger 2001-2011
</metadata>
<g transform="translate(0.000000,300.000000) scale(0.100000,-0.100000)"
fill="#000000" stroke="none">
<path d="M1394 2660 c-105 -27 -204 -90 -314 -200 -146 -145 -172 -216 -174
-471 -1 -130 -3 -145 -17 -142 -9 3 -20 0 -23 -5 -3 -6 2 -8 13 -5 11 3 27 -4
39 -18 l21 -22 2 159 c2 210 2 212 14 207 6 -2 11 5 11 16 0 11 -3 18 -7 15
-4 -2 -9 3 -13 11 -3 8 0 14 7 12 7 -1 11 6 9 15 -1 9 2 19 8 23 5 3 10 15 10
25 0 10 3 20 8 22 4 2 25 28 48 58 56 75 121 140 139 140 9 0 18 7 21 15 4 8
12 15 20 15 7 0 17 6 21 13 12 19 70 57 87 57 8 0 17 4 20 9 7 11 67 25 146
34 82 9 300 -75 300 -117 0 -11 48 -56 60 -56 27 0 188 -220 175 -240 -3 -4 1
-11 7 -13 10 -4 10 -6 0 -6 -10 -1 -10 -6 -2 -22 7 -11 9 -27 6 -35 -3 -9 -1
-12 4 -9 6 4 10 -13 10 -42 0 -27 6 -55 13 -62 6 -8 7 -11 1 -8 -8 5 -12 -23
-12 -96 -1 -97 14 -252 17 -180 1 24 8 36 29 48 21 13 22 15 6 12 -21 -4 -21
-2 -20 162 1 268 -24 333 -188 497 -122 121 -185 159 -311 189 -83 19 -103 18
-191 -5z"/>
<path d="M1404 2512 c11 -12 25 -22 33 -22 7 0 13 -4 13 -8 0 -5 16 -13 35
-19 25 -8 34 -8 32 1 -2 12 3 12 46 2 19 -4 26 -3 22 4 -3 5 -11 10 -17 10 -6
0 -20 8 -31 18 -11 9 -17 12 -14 5 9 -14 -9 -27 -18 -13 -3 5 -17 10 -31 10
-13 0 -24 4 -24 8 0 5 -6 9 -12 9 -7 0 -22 4 -33 9 -20 7 -20 7 -1 -14z"/>
<path d="M1265 2513 c11 -2 35 -11 54 -20 28 -13 35 -13 42 -2 5 8 9 9 9 3 0
-6 7 -11 15 -11 8 0 15 4 15 8 0 11 -40 20 -100 24 -30 2 -46 1 -35 -2z"/>
<path d="M1635 2500 c-3 -5 -16 -10 -28 -10 -29 0 -9 -16 30 -23 19 -4 33 -2
35 5 3 8 10 8 25 -1 14 -7 24 -7 28 -2 3 6 -5 15 -17 22 -25 14 -28 13 -45
-10 -11 -14 -13 -14 -14 -1 -1 8 -1 18 0 23 2 10 -7 9 -14 -3z"/>
<path d="M1111 2001 c-7 -5 -22 -6 -32 -4 -24 7 -60 -23 -52 -43 3 -8 -1 -14
-8 -14 -7 0 -10 -3 -7 -6 4 -3 16 -1 27 6 13 6 21 7 21 1 0 -5 -9 -13 -21 -16
-11 -4 -18 -9 -16 -12 3 -2 19 3 36 11 16 9 40 16 53 17 22 0 22 1 3 8 -11 5
-25 4 -32 -1 -12 -10 -17 -4 -14 15 1 5 -9 5 -21 2 -22 -7 -23 -7 -3 8 11 8
22 12 25 7 3 -4 25 -13 49 -20 36 -10 46 -9 58 3 13 12 19 12 41 2 15 -8 51
-16 80 -19 30 -3 58 -8 63 -12 5 -3 6 2 3 10 -3 9 -1 16 5 16 6 0 11 -5 11
-12 0 -6 3 -8 7 -5 3 4 15 0 25 -10 17 -15 18 -15 18 1 0 9 -5 14 -10 11 -6
-3 -13 1 -16 9 -3 9 -10 14 -14 11 -4 -3 -13 2 -20 11 -10 11 -15 12 -21 3 -4
-7 -15 -14 -23 -15 -9 -1 -14 2 -10 7 3 5 10 7 15 4 5 -4 9 -1 9 4 0 6 -12 11
-26 11 -14 0 -23 4 -20 8 3 5 -1 9 -9 9 -8 0 -12 -4 -9 -9 7 -11 -39 -10 -71
2 -17 7 -24 7 -20 0 3 -6 1 -10 -5 -10 -6 0 -8 -4 -5 -10 4 -6 -10 -9 -34 -8
-46 1 -49 5 -23 24 19 15 15 19 -7 5z"/>
<path d="M1710 1987 c0 -5 9 -7 20 -4 22 6 27 -7 8 -20 -21 -13 -33 -9 -40 12
-6 19 -6 19 -7 -2 -1 -12 -6 -25 -13 -29 -7 -4 -8 -3 -4 4 4 7 2 12 -3 12 -6
0 -11 -5 -11 -10 0 -7 -6 -7 -19 -1 -16 9 -20 7 -23 -13 -5 -22 -3 -23 26 -14
48 15 83 19 185 19 106 0 117 13 19 22 -14 1 -24 5 -22 8 2 4 -9 12 -24 18
-31 13 -92 11 -92 -2z"/>
<path d="M1915 1977 c10 -16 24 -26 31 -23 8 3 18 -4 24 -15 6 -11 16 -16 22
-13 7 4 8 3 4 -4 -5 -9 -14 -8 -35 2 -17 9 -32 11 -42 5 -10 -6 -7 -9 13 -9
14 0 28 -6 31 -12 7 -20 43 6 39 28 -4 25 -42 56 -60 49 -8 -3 -22 0 -30 7
-11 10 -11 6 3 -15z"/>
<path d="M1678 1870 c-20 -11 -40 -25 -44 -32 -6 -10 -4 -11 7 0 18 16 34 16
20 -1 -6 -8 -7 -18 -3 -22 4 -5 2 -5 -5 -1 -6 3 -14 2 -18 -4 -4 -6 8 -10 32
-9 21 0 32 3 26 6 -18 7 -16 23 5 40 15 13 15 14 -8 8 -20 -4 -18 -1 10 14 45
26 27 26 -22 1z"/>
<path d="M1330 1870 c12 -8 12 -10 1 -10 -11 0 -10 -5 4 -20 10 -11 25 -20 34
-20 12 0 9 6 -9 20 -27 21 -21 27 11 10 10 -6 19 -8 19 -6 0 7 -56 36 -67 36
-4 0 -1 -5 7 -10z"/>
<path d="M1155 1843 c-27 -14 -44 -28 -37 -30 7 -3 30 4 51 15 l39 21 6 -24
c13 -51 96 -38 96 15 0 30 -1 30 -52 30 -37 -1 -68 -9 -103 -27z"/>
<path d="M1722 1839 c3 -32 5 -34 45 -37 37 -3 43 0 48 21 l6 23 50 -24 c65
-32 73 -22 12 14 -33 19 -66 29 -106 32 l-58 5 3 -34z"/>
<path d="M919 1758 c-1 -18 -3 -53 -5 -78 -6 -66 59 -395 76 -385 5 3 4 21 -2
41 -5 20 -7 42 -4 50 3 9 1 12 -4 9 -6 -4 -10 15 -10 49 0 31 -4 56 -8 56 -4
0 -9 14 -10 31 -1 18 -6 37 -9 43 -15 23 -20 133 -9 184 5 21 4 32 -3 32 -6 0
-11 -15 -12 -32z"/>
<path d="M1758 1753 c18 -2 45 -2 60 0 15 2 0 4 -33 4 -33 0 -45 -2 -27 -4z"/>
<path d="M2067 1593 c-4 -28 -16 -76 -26 -106 -11 -31 -17 -66 -14 -79 3 -16
2 -19 -4 -10 -6 8 -9 -3 -7 -33 1 -24 -1 -47 -6 -50 -5 -3 -7 -14 -5 -25 2
-11 -1 -20 -7 -20 -6 0 -9 -3 -5 -6 9 -9 -14 -65 -25 -58 -5 3 -9 0 -7 -7 3
-28 -1 -49 -11 -49 -14 0 -50 -32 -50 -45 0 -5 5 -3 10 5 5 8 10 11 10 6 0
-15 -41 -55 -54 -52 -6 2 -8 1 -3 -1 13 -8 8 -23 -8 -23 -8 0 -14 -3 -14 -7 3
-20 -2 -24 -16 -13 -13 10 -18 11 -28 1 -9 -10 -8 -11 7 -5 18 7 18 6 1 -19
-9 -15 -21 -25 -25 -22 -5 3 -12 0 -15 -6 -4 -5 -13 -8 -21 -5 -8 3 -11 0 -7
-10 4 -10 -2 -14 -21 -14 -14 0 -26 -5 -26 -12 0 -6 -3 -8 -7 -5 -3 4 -12 2
-20 -4 -8 -7 -13 -8 -13 -1 0 5 -7 13 -16 16 -8 3 -12 2 -9 -4 3 -6 3 -10 -2
-11 -55 -5 -71 -4 -86 9 -14 13 -20 13 -30 2 -9 -10 -9 -11 1 -6 6 4 12 3 12
-2 0 -6 -19 -9 -42 -7 -24 2 -49 4 -57 4 -7 1 -11 7 -8 15 4 9 0 13 -11 11 -9
-1 -16 -7 -15 -13 4 -17 -25 -22 -31 -6 -3 9 -11 12 -16 9 -6 -4 -16 -2 -23 3
-7 5 -25 12 -40 16 -21 5 -27 11 -23 23 6 14 4 14 -11 2 -11 -9 -14 -10 -9 -1
5 8 1 12 -11 12 -15 0 -16 2 -3 10 13 8 12 10 -3 10 -24 0 -68 30 -61 41 3 5
-6 13 -20 19 -23 9 -31 20 -27 43 0 4 -5 7 -12 7 -7 0 -21 9 -30 21 -15 17
-16 23 -6 35 7 8 8 14 3 12 -11 -4 -54 38 -47 46 3 3 0 12 -6 20 -7 8 -10 20
-6 25 3 6 0 8 -9 5 -12 -5 -11 -13 7 -57 29 -73 65 -123 140 -194 36 -35 63
-63 60 -63 -3 0 7 -12 23 -27 16 -15 28 -31 26 -36 -1 -5 2 -6 7 -3 5 4 12 2
16 -4 3 -5 11 -10 18 -10 6 0 -4 14 -23 30 l-35 31 43 -26 c23 -14 42 -22 42
-19 0 4 7 1 16 -7 11 -9 57 -13 159 -13 79 -1 146 -4 150 -8 4 -4 17 2 28 13
16 14 23 16 29 7 4 -8 8 -8 8 -2 0 14 78 57 90 49 5 -3 20 1 32 9 12 9 17 16
10 16 -6 0 -12 5 -12 10 0 6 6 10 13 10 7 0 21 16 31 35 11 19 21 33 24 31 5
-6 82 90 82 102 0 5 7 24 16 42 9 18 18 40 19 49 6 51 19 101 26 101 5 0 6 8
2 18 -5 14 -3 15 8 5 7 -7 24 -13 39 -12 l25 1 -27 8 c-44 13 -48 18 -38 46 5
13 11 38 12 54 1 17 8 30 16 30 7 0 10 5 7 10 -4 6 -10 8 -15 5 -4 -3 -2 14 4
38 7 23 10 53 6 67 -5 20 -8 15 -13 -27z"/>
<path d="M1395 1494 c-30 -14 -30 -14 19 -9 27 3 55 5 63 5 8 0 11 5 8 10 -9
14 -55 12 -90 -6z"/>
<path d="M1575 1497 c-11 -7 -23 -16 -26 -20 -3 -5 -9 -8 -13 -8 -3 1 -18 1
-33 0 -28 0 -28 0 -4 -10 18 -7 31 -4 56 11 34 21 95 27 95 10 0 -6 -10 -15
-22 -20 -16 -6 -18 -9 -7 -9 9 -1 27 8 40 20 13 11 19 18 13 15 -7 -3 -17 1
-24 9 -15 18 -47 19 -75 2z"/>
<path d="M1458 1423 c6 -2 10 -9 6 -14 -3 -5 0 -9 6 -9 6 0 8 -5 5 -10 -5 -8
-11 -7 -21 1 -12 10 -15 10 -12 -2 2 -8 -3 -13 -12 -11 -11 3 -12 1 -4 -8 9
-9 17 -9 33 0 12 6 26 8 31 5 15 -9 12 8 -6 33 -8 12 -21 22 -27 21 -9 0 -8
-2 1 -6z"/>
<path d="M1532 1395 c1 -33 18 -52 18 -19 0 8 5 12 11 8 8 -5 8 -1 0 14 -19
36 -30 35 -29 -3z"/>
<path d="M1356 1395 c-3 -8 -2 -14 2 -14 21 3 22 -3 2 -19 -22 -18 -22 -18 -1
-18 12 0 21 7 21 16 0 13 2 13 11 0 9 -13 10 -13 5 0 -3 8 -9 23 -12 33 -8 21
-20 22 -28 2z"/>
<path d="M1659 1398 c-6 -26 -5 -39 5 -47 8 -7 12 -3 14 14 1 13 -3 27 -8 30
-6 3 -10 5 -11 3z"/>
<path d="M1193 1353 c21 -6 21 -12 1 -35 -16 -17 -15 -17 24 0 23 9 44 24 47
32 5 12 4 13 -6 3 -14 -14 -33 -18 -26 -5 3 4 -9 8 -26 8 -18 1 -24 -1 -14 -3z"/>
<path d="M1375 1289 c-22 -10 -52 -19 -66 -19 -14 0 -34 -6 -44 -14 -18 -13
-18 -14 7 -9 15 3 48 -2 74 -11 55 -18 78 -20 69 -6 -4 6 -10 8 -15 5 -5 -3
-22 1 -37 9 l-28 15 35 1 c19 0 102 2 183 5 96 4 146 2 142 -4 -3 -6 -21 -13
-40 -17 -19 -3 -35 -10 -35 -14 0 -5 8 -7 18 -5 9 2 17 4 17 5 0 2 37 11 52
12 7 1 10 5 7 9 -8 14 14 19 40 9 16 -6 26 -6 26 0 0 11 -23 17 -85 24 -22 3
-50 7 -63 10 -13 3 -20 1 -17 -5 4 -5 -16 -10 -47 -10 -62 -2 -141 -1 -148 2
-3 1 -9 1 -15 0 -5 -1 -1 6 9 14 26 20 10 18 -39 -6z"/>
<path d="M1468 1192 c-45 -20 -49 -35 -10 -31 15 2 34 -1 42 -5 12 -7 13 -6 3
5 -17 18 -16 29 3 29 8 0 13 -4 10 -9 -7 -10 23 -20 42 -14 20 7 13 26 -8 20
-11 -3 -18 -2 -15 3 4 6 -21 23 -28 19 -1 0 -19 -8 -39 -17z"/>
<path d="M1790 1125 c7 -8 9 -15 5 -15 -4 0 -2 -7 5 -15 7 -8 16 -12 21 -9 10
6 -19 54 -33 54 -6 0 -5 -6 2 -15z"/>
<path d="M999 906 c-26 -19 -66 -53 -89 -75 -24 -23 -45 -41 -48 -41 -2 0 -43
-22 -91 -49 -273 -154 -321 -181 -376 -209 -33 -16 -129 -82 -213 -146 -84
-64 -156 -116 -161 -116 -5 0 -11 -7 -15 -15 -4 -12 -2 -13 12 -6 9 5 20 10
24 11 41 10 47 13 43 20 -2 4 30 31 72 61 42 30 99 71 127 92 28 21 59 40 69
43 9 4 17 9 17 13 0 4 17 13 37 20 21 8 40 17 43 20 5 6 20 15 103 60 120 65
153 84 168 97 8 8 22 14 31 14 17 0 188 110 207 134 24 29 33 17 12 -17 -11
-18 -22 -46 -25 -62 l-5 -30 17 25 c9 13 34 47 55 74 25 34 37 61 37 83 0 18
-1 33 -2 33 -2 0 -24 -16 -49 -34z"/>
<path d="M1971 827 c2 -77 -21 -134 -77 -192 -43 -45 -206 -182 -296 -248 -31
-23 -61 -54 -67 -69 -10 -29 -25 -36 -37 -17 -4 8 -9 7 -15 -2 -6 -10 -13 -6
-30 14 -11 16 -24 26 -27 22 -3 -3 -15 3 -26 14 -12 11 -66 45 -121 77 -55 32
-124 74 -154 93 -133 88 -143 86 -28 -6 67 -54 90 -70 142 -97 11 -6 34 -21
52 -33 17 -13 34 -23 37 -23 3 0 29 -16 56 -35 28 -19 50 -30 50 -23 0 8 3 9
10 2 7 -7 7 -19 2 -34 -5 -13 -5 -40 -1 -60 5 -19 11 -73 15 -120 6 -80 9 -99
18 -89 2 2 0 60 -5 128 -4 69 -6 128 -3 133 8 12 22 10 27 -4 2 -7 3 -5 1 5
-1 10 3 16 9 14 7 -3 11 -10 9 -16 -1 -6 4 -10 10 -9 10 2 15 -32 22 -124 5
-71 13 -128 17 -128 11 0 11 -9 -1 155 -6 96 -5 134 3 145 11 13 10 13 -5 1
-15 -11 -18 -11 -18 1 0 8 17 23 38 34 20 10 48 30 62 43 14 13 59 49 100 81
117 89 195 171 230 244 31 62 33 64 60 55 15 -6 38 -21 51 -35 12 -13 31 -24
41 -24 11 0 71 -22 134 -50 63 -27 120 -50 127 -50 13 0 158 -71 167 -81 3 -4
15 -9 28 -13 12 -4 42 -23 66 -41 25 -19 59 -41 77 -51 18 -9 38 -22 45 -28 6
-7 31 -18 55 -26 24 -8 58 -27 74 -42 17 -15 34 -28 38 -28 5 0 15 -7 23 -15
9 -8 23 -15 31 -15 14 0 14 3 -2 20 -10 11 -22 20 -27 20 -4 0 -26 18 -48 40
-22 22 -49 40 -60 40 -26 0 -63 19 -165 84 -100 65 -261 150 -299 160 -44 11
-269 107 -287 122 -8 8 -30 19 -47 25 -18 6 -32 17 -32 25 0 16 -38 94 -45 94
-3 0 -5 -28 -4 -63z"/>
<path d="M1477 220 c3 -14 6 -39 4 -56 -1 -17 3 -42 9 -55 8 -20 9 -18 4 14
-5 30 -3 37 11 37 10 0 15 6 13 18 -2 9 -7 15 -12 12 -4 -3 -14 9 -22 25 -11
24 -12 25 -7 5z"/>
<path d="M1490 31 c0 -12 9 -20 23 -23 20 -4 23 -1 19 19 -5 29 -42 32 -42 4z"/>
</g>
</svg>
