<svg width="3835" height="3027" viewBox="0 0 3835 3027" fill="none" xmlns="http://www.w3.org/2000/svg">
<path fill-rule="evenodd" clip-rule="evenodd" d="M925.068 1.40471C903.31 6.20252 884.681 20.6959 875.044 40.3241C869.016 52.602 867.231 60.0672 867.257 72.905C867.282 85.7688 869.293 94.6656 874.6 105.397C884.098 124.606 901.363 138.592 922.137 143.904C929.524 145.794 933.427 145.888 1005.46 145.913C1047.02 145.927 1085.41 146.364 1090.75 146.884C1129.81 150.685 1163.77 173.658 1181.74 208.445C1206.72 256.815 1194.14 314.94 1151.26 349.316C1141.26 357.329 1122.84 366.701 1109.53 370.551L1100.03 373.297L849.585 373.825C575.995 374.402 597.633 373.921 582.846 379.75C569.444 385.033 554.378 398.338 547.137 411.286C535.138 432.742 534.565 459.378 545.646 480.667C553.164 495.111 564.043 505.878 578.147 512.832C592.946 520.128 592.489 520.075 647.632 520.812C693.336 521.423 697.732 521.633 705.118 523.559C743.685 533.62 772.554 562.557 782.721 601.341C786.106 614.255 786.106 637.281 782.721 650.195C772.206 690.307 741.869 719.555 701.119 728.867C697.816 729.621 672.891 730.25 627.636 730.722C565.068 731.373 558.029 731.615 546.155 733.524C467.536 746.164 402.608 787.687 358.997 853.214C317.042 916.252 303.824 994.911 322.701 1069.2C347.68 1167.51 427.441 1244.8 526.81 1267C548.097 1271.76 559.727 1272.77 602.642 1273.62C647.153 1274.51 654.151 1275.21 678.624 1281.23C750.077 1298.81 811.403 1346.82 846.443 1412.59C860.359 1438.71 870.293 1469.93 874.743 1501.55C876.773 1515.98 876.452 1555.01 874.178 1570.03C865.662 1626.31 839.661 1677.78 799.685 1717.51C785.924 1731.19 775.313 1739.86 759.246 1750.56C718.615 1777.61 667.563 1793.47 621.144 1793.48C453.799 1793.5 298.611 1857.5 181.205 1974.9C77.0503 2079.05 14.5786 2213.07 1.76957 2359.84C-0.0340142 2380.51 -0.569891 2421.46 0.680822 2443.14C8.69199 2582.03 59.2534 2706.95 150.67 2813.72C162.547 2827.59 198.89 2863.97 212.731 2875.84C252.647 2910.09 292.051 2936.67 337.203 2959.8C408.707 2996.43 483.807 3017.89 566.65 3025.37C578.512 3026.44 848.132 3026.67 2050.31 3026.67C3467.61 3026.67 3519.95 3026.61 3532.97 3024.85C3540.39 3023.84 3551.97 3021.91 3558.69 3020.56C3661.77 2999.8 3749.7 2932.98 3797.32 2839.22C3816.02 2802.42 3826.92 2766.96 3832.56 2724.63C3835 2706.36 3834.99 2660.87 3832.54 2642.77C3824.58 2583.81 3804.22 2531.45 3771.42 2485.63C3716.37 2408.74 3633.27 2357.7 3541.47 2344.42C3518.58 2341.11 3500.48 2340.38 3440.49 2340.35C3382.08 2340.32 3369.59 2339.72 3346.75 2335.83C3323.02 2331.78 3294.07 2323.15 3270.78 2313.16L3259.03 2308.12V2222.26V2136.39H3220.04C3196.95 2136.39 3181.05 2136.02 3181.05 2135.47C3181.05 2132.84 3194.5 2101.27 3203.48 2082.84C3230.98 2026.36 3262.37 1982.08 3305.5 1938.9C3349.36 1894.98 3396.31 1862.04 3452.49 1835.77C3466.84 1829.06 3493.88 1818.21 3506.79 1813.99C3522.29 1808.92 3516.45 1809.46 3478.48 1816.63C3422.45 1827.2 3368.89 1841.54 3311.02 1861.46C3296.45 1866.48 3283.74 1870.83 3282.78 1871.14C3281.37 1871.58 3282.51 1867.33 3288.61 1849.33C3309.36 1788.12 3335.83 1730.71 3368.17 1676.79C3372.52 1669.52 3376.63 1663.23 3377.3 1662.81C3377.96 1662.39 3399.88 1661.75 3425.99 1661.38C3452.11 1661.01 3477.53 1660.21 3482.48 1659.6C3542.17 1652.22 3592.93 1633.59 3640.95 1601.42C3729.82 1541.88 3787.03 1445.79 3796.97 1339.37C3798.72 1320.59 3797.67 1275.94 3795.06 1258.61C3783.57 1182.33 3751.29 1116.4 3698.93 1062.31C3646.65 1008.3 3578.05 971.436 3506.98 959.17C3479.77 954.476 3479.13 954.446 3389 953.714C3305.12 953.033 3302.23 952.946 3292.78 950.831C3250.73 941.416 3216.57 914.899 3197.67 877.013C3191.9 865.434 3188.57 855.944 3185.89 843.448C3182.99 829.896 3182.74 804.608 3185.38 791.388C3195.29 741.764 3230.97 701.439 3278.77 685.841C3297.37 679.773 3300.83 679.499 3368.01 678.775C3427.76 678.132 3429.7 678.05 3436.93 675.881C3464.23 667.678 3484.6 650.575 3496.97 625.476C3503.06 613.119 3505.88 602.598 3506.66 589.203C3509.3 544.474 3481.31 505.312 3436.93 491.616L3429.49 489.323L3133.56 488.752C2863.97 488.231 2836.92 488.033 2829.63 486.532C2794.87 479.368 2769.6 465.692 2746.55 441.564C2726.82 420.914 2714.21 396.77 2708.03 367.832C2704.84 352.896 2704.81 325.893 2707.96 311.242C2712.48 290.258 2720.96 270.438 2732.3 254.36C2740.43 242.839 2757.12 226.148 2768.65 218.02C2784.31 206.969 2804.36 198.218 2824.63 193.576C2833.23 191.607 2837.58 191.489 2923.11 190.883C3011.14 190.261 3012.72 190.215 3020.98 188.044C3056.83 178.621 3084.12 150.145 3091.56 114.395C3093.66 104.29 3093.72 85.8098 3091.69 76.4041C3083.38 38.0506 3054.9 9.76464 3016.59 1.81661C3007.84 5.92323e-05 2979.26 -0.0489287 1969.33 0.0160552C1112.01 0.0700418 930.021 0.312982 925.068 1.40471ZM3222.04 1.79961C3190.88 8.65392 3165.5 29.4188 3153.52 57.8547C3147.7 71.6843 3146.58 77.7308 3146.58 95.3994C3146.58 113.105 3147.7 119.107 3153.58 133.075C3173.35 180.018 3228.93 202.959 3276.68 183.889C3338.75 159.1 3356.63 78.1367 3310.66 30.0976C3291.85 10.4375 3271.26 1.25275 3244.04 0.368968C3233.32 0.021054 3228.79 0.314981 3222.04 1.79961ZM2350.24 466.308V601.774H2196.78H2043.31V466.308V330.841H2196.78H2350.24V466.308ZM398.689 374.502C369.611 378.221 346.769 396.563 337.031 424.008C333.622 433.62 332.651 453.622 335.089 464.038C341.112 489.762 360.256 509.755 386.691 517.928C396.346 520.912 414.658 521.198 424.683 518.521C449.71 511.836 468.911 493.162 476.829 467.807C478.826 461.411 479.157 458.327 479.081 446.812C479.004 435.066 478.651 432.278 476.358 425.318C472.518 413.662 467.315 405.435 457.691 395.798C448.146 386.241 438.304 380.394 426.039 376.996C418.748 374.975 404.875 373.71 398.689 374.502ZM2147.54 379.873C2121.53 384.526 2101.89 406.54 2099.74 433.432C2098.38 450.41 2105.04 467.562 2117.64 479.524C2132.53 493.671 2152.17 498.978 2172.18 494.264C2197.51 488.292 2216.31 464.234 2216.26 437.855C2216.21 412.064 2199.64 389.32 2175.42 381.799C2167.88 379.458 2154.88 378.56 2147.54 379.873ZM2222.52 490.423C2202.12 512.351 2185.73 530.57 2186.1 530.909C2187.27 531.979 2290.22 555.159 2290.87 554.501C2291.35 554.021 2263.7 461.653 2260.31 452.432C2259.75 450.904 2252.71 457.988 2222.52 490.423ZM1532.77 886.291C1553.69 891.712 1570.11 907.205 1577.18 928.193L1579.88 936.191L1580.2 990.6C1580.57 1051.54 1580.3 1054.87 1573.85 1068.33C1571.96 1072.27 1570.42 1075.76 1570.42 1076.09C1570.42 1076.58 1598.87 1110.84 1604.63 1117.28C1606.13 1118.96 1600.01 1117.2 1575.4 1108.87L1544.27 1098.34L1538.1 1100.5C1534.7 1101.69 1528.33 1103.12 1523.93 1103.69C1518.5 1104.39 1362.08 1104.63 1037.04 1104.44C582.133 1104.16 557.852 1104.06 552.153 1102.38C533.29 1096.81 518.355 1084.13 510.652 1067.16C505.195 1055.13 505.164 1054.72 505.164 993.177V936.191L507.903 928.115C514.727 907.991 530.963 892.397 551.154 886.575C556.801 884.948 585.483 884.842 1041.9 884.775C1481.59 884.711 1527.21 884.852 1532.77 886.291ZM639.633 952.187V955.686H757.606H875.579V952.187V948.688H757.606H639.633V952.187ZM941.564 952.187V955.686H1020.55H1099.53V952.187V948.688H1020.55H941.564V952.187ZM1187.51 952.192V955.697L1276.74 955.441L1365.97 955.186L1366.28 951.937L1366.59 948.688H1277.05H1187.51V952.192ZM683.623 1000.68V1003.67H788.099H892.575V1000.68V997.676H788.099H683.623V1000.68ZM980.555 1000.68V1003.67H1095.53H1210.5V1000.68V997.676H1095.53H980.555V1000.68ZM1260.49 1000.68V1003.67H1352.97H1445.45V1000.68V997.676H1352.97H1260.49V1000.68ZM800.596 1052.16V1055.66H919.069H1037.54V1052.16V1048.66H919.069H800.596V1052.16ZM1166.51 1052.16V1055.66H1271.99H1377.46V1052.16V1048.66H1271.99H1166.51V1052.16ZM1947.25 1365.54C1946.11 1372.79 1943.06 1378.9 1938.17 1383.8C1931.78 1390.18 1925.38 1392.93 1916.84 1392.95C1908.55 1392.97 1902.69 1390.69 1896.42 1385.03C1891.96 1381 1886.67 1372.93 1887.77 1371.83C1888.23 1371.36 1939.04 1361.86 1947.43 1360.67C1947.76 1360.62 1947.68 1362.81 1947.25 1365.54ZM2285.01 1952.33C2297.05 1958.86 2304.24 1969.87 2304.97 1982.88C2305.26 1987.88 2297.22 2059.6 2277.32 2229.67C2261.89 2361.53 2249.26 2470.06 2249.26 2470.86C2249.26 2472.12 2206.75 2472.31 1917.34 2472.31C1621.97 2472.31 1585.42 2472.14 1585.42 2470.8C1585.42 2469.97 1572.78 2361.21 1557.34 2229.11C1537.54 2059.78 1529.39 1986.99 1529.7 1982.34C1530.4 1971.82 1536.24 1961.27 1544.69 1955.25C1546.35 1954.07 1550.23 1952.06 1553.32 1950.79L1558.92 1948.48L1918.84 1948.71L2278.76 1948.94L2285.01 1952.33ZM1905.17 2169.34C1873.12 2175.22 1849.41 2198.12 1842.69 2229.69C1840.58 2239.61 1841.37 2257.38 1844.35 2266.86C1850.97 2287.91 1865.06 2304.08 1884.96 2313.48C1896.16 2318.78 1904.61 2320.59 1917.84 2320.54C1951.33 2320.41 1979.01 2300.17 1989.89 2267.86C1993.52 2257.11 1994.37 2240.28 1991.88 2228.76C1985.91 2201.1 1964.27 2178.38 1936.8 2170.94C1929.75 2169.04 1911.8 2168.13 1905.17 2169.34ZM1590.42 2491.31C1590.42 2491.97 1699.72 2492.31 1916.34 2492.31C2132.96 2492.31 2242.27 2491.97 2242.27 2491.31C2242.27 2490.64 2462.55 2490.31 2901.12 2490.31H3559.96V2566.29V2642.27H3383.5H3207.05V2701.25V2760.24H1937.34H667.627V2701.25V2642.27H471.172H274.717V2566.29V2490.31H932.566C1370.47 2490.31 1590.42 2490.64 1590.42 2491.31Z" fill="black"/>
</svg>
