<svg width="2513" height="1512" viewBox="0 0 2513 1512" fill="none" xmlns="http://www.w3.org/2000/svg">
<path fill-rule="evenodd" clip-rule="evenodd" d="M1249.83 0.575079C1225.3 4.95199 1205.97 20.6591 1198 42.6987C1196.55 46.7157 1195.21 50.1968 1195.03 50.4347C1194.84 50.6727 1190.76 46.9816 1185.96 42.2328C1176.12 32.5062 1172.41 29.433 1161.84 22.2637C1154.76 17.4669 1132.04 5.8758 1131.26 6.66061C1131.05 6.86756 1139.84 14.8756 1150.79 24.4552C1161.74 34.0348 1170.55 42.0229 1170.36 42.2058C1170.18 42.3888 1166.84 41.8669 1162.93 41.0461C1113.62 30.6726 1052.26 44.1054 1015.61 73.3011C997.993 87.3347 982.45 108.725 978.83 123.919C976.287 134.587 977.934 148.978 982.783 158.475C983.765 160.4 989.866 169.847 996.341 179.47C1018.38 212.228 1025.43 233.09 1026.5 268.762C1026.8 278.556 1027.39 286.204 1027.82 285.757C1029.33 284.187 1035.95 263.84 1038.34 253.451C1039.67 247.678 1041.24 236.656 1041.84 228.958C1043.2 211.532 1045.17 200.816 1048.43 193.07C1053.65 180.654 1063.09 168.473 1067.48 168.473C1070.45 168.473 1071.75 171.755 1071.76 179.285C1071.78 194.518 1078.01 201.027 1095 203.554C1112.72 206.19 1147.63 198.811 1178.39 185.924C1194.74 179.072 1211.05 170.21 1236.05 154.577C1260.76 139.136 1268.29 135.166 1276.29 133.374C1282.87 131.903 1285.78 132.648 1290.66 137.061C1296.46 142.3 1296.61 144.815 1291.78 155.308C1285.38 169.198 1285.94 173.142 1296.22 186.928C1305.77 199.724 1308.16 205.963 1310.22 223.604C1312.14 240.024 1314.97 254.98 1318.88 269.284C1322.06 280.922 1323.65 282.346 1323.68 273.575C1323.72 263.823 1328.3 238.771 1332.94 222.959C1335.58 213.967 1342.18 198.539 1348.54 186.468C1355.56 173.139 1359.29 163.206 1361.75 151.271C1363.6 142.303 1363.81 138.666 1363.39 122.984C1362.99 108.103 1362.46 103.258 1360.36 94.9907C1350.45 55.9284 1327.11 30.2758 1292.14 19.9773C1281.3 16.7851 1266.15 15.7063 1256.28 17.4249C1252.54 18.0767 1249.29 18.4157 1249.05 18.1788C1248.43 17.5609 1260 10.3967 1268.68 6.02978C1274.48 3.10751 1275.73 2.1067 1274.47 1.40288C1272.03 0.0342164 1255.9 -0.507652 1249.83 0.575079ZM1081.89 444.943C1077.93 446.663 1076.65 446.805 1078.75 445.294C1080.09 444.335 1080.09 444.27 1078.75 444.708C1070.57 447.398 742.198 582.012 732.87 586.501C714.546 595.318 702.047 603.895 690.268 615.736C668.786 637.327 655.852 662.93 635.679 723.794L626.719 750.828L580.187 1000.77C529.965 1270.53 531.101 1263.62 533.844 1282.38C536.932 1303.5 546.375 1323.02 561.166 1338.85C564.92 1342.86 591.264 1364.05 627.856 1392.48C661.124 1418.32 689.04 1440.06 689.893 1440.79C691.254 1441.94 691.225 1441.04 689.659 1433.38C687.466 1422.66 687.31 1404.34 689.333 1394.8C693.846 1373.5 709.139 1356.9 730.956 1349.64L738.831 1347.02V1330.63V1314.23L736.286 1312.57C732.229 1309.91 721.194 1295.46 716.942 1287.24C709.263 1272.39 704.977 1252.92 706.202 1238.43C706.54 1234.43 708.857 1219.58 711.349 1205.44C722.189 1143.93 729.5 1084.74 735.642 1008.76C736.439 998.9 736.459 998.84 737.163 1004.27C737.556 1007.29 745.177 1090.47 754.1 1189.11L770.324 1368.45L798.817 1386.68C814.488 1396.7 827.451 1404.78 827.624 1404.64C827.797 1404.49 817.477 1314.76 804.689 1205.25C783.41 1023.01 781.537 1005.65 782.605 1000.56C785.179 988.285 792.714 978.418 803.61 973.054L810.272 969.774H1170.71H1531.15L1536.87 972.453C1549.29 978.276 1558.14 990.479 1559.22 1003.27C1559.63 1008.13 1553.98 1059.2 1536.71 1206.64C1524.04 1314.92 1513.85 1403.7 1514.08 1403.92C1514.31 1404.15 1518.24 1401.91 1522.82 1398.95C1527.4 1395.98 1542.4 1386.42 1556.14 1377.69C1569.89 1368.97 1581.51 1361.52 1581.97 1361.12C1583.54 1359.78 1586.63 1317.17 1596.11 1165.68C1601.33 1082.24 1605.77 1013.79 1605.98 1013.58C1606.18 1013.38 1606.66 1017.61 1607.03 1022.98C1610.44 1071.92 1618.61 1136.92 1629.17 1199.14C1635.72 1237.67 1636.24 1242.96 1634.69 1254.64C1632.02 1274.68 1623.57 1292.81 1610.38 1306.76L1602.63 1314.96V1330.98V1347L1610.21 1349.55C1632.46 1357.03 1646.16 1371.32 1651.65 1392.78C1654.23 1402.88 1654.3 1421.15 1651.81 1433.36L1650.03 1442.06L1654.08 1438.8C1656.3 1437 1683.54 1415.78 1714.61 1391.65C1745.68 1367.51 1773.46 1345.54 1776.36 1342.81C1792.41 1327.72 1804.38 1304.55 1807.63 1282.29C1810.36 1263.66 1811.45 1270.31 1761.29 1000.77L1714.77 750.828L1705.31 722.335C1685.83 663.675 1673.67 639.078 1653.85 618.245C1649.13 613.288 1641.42 606.345 1636.72 602.816C1618.79 589.357 1631.41 594.548 1344.48 482.613C1339.57 480.697 1337.7 479.45 1337.49 477.955C1337.25 476.329 1334.03 474.64 1321.7 469.685C1301.42 461.536 1252.3 444.531 1251.9 445.52C1251.73 445.944 1250.83 446.031 1249.9 445.713C1248.47 445.222 1248.49 445.35 1250.03 446.556C1253.1 448.955 1254.95 465.811 1254.39 486.394C1253.99 501.286 1253.53 505.287 1251.3 513.28C1243.36 541.726 1226.82 562.622 1193.61 586.171C1184.07 592.928 1179.14 594.345 1165.09 594.359L1157.94 594.367L1146.04 585.433C1121.62 567.109 1106.28 550.285 1097.19 531.882C1084.63 506.433 1082.18 482.921 1088.25 446.154C1088.78 442.932 1087.21 442.633 1081.89 444.943ZM2158.51 1227.71V1297.19H2176.34H2194.17L2194.87 1369.9C2195.48 1434.07 2195.75 1442.9 2197.16 1445.13C2200.54 1450.46 2224.42 1472.98 2233.49 1479.37C2274.05 1508 2325.96 1518.38 2374.33 1507.54C2410.07 1499.52 2443.45 1479.87 2467.54 1452.65C2485.55 1432.32 2499.89 1405.63 2506.49 1380.15C2511.95 1359.07 2511.73 1363.97 2512.14 1257.45L2512.52 1158.23H2335.51H2158.51V1227.71ZM0 1393.58C0 1441.86 0.422879 1446.86 5.59869 1459.82C10.3336 1471.68 15.8924 1479.79 25.7831 1489.25C33.5993 1496.74 36.6876 1498.92 45.2786 1503.06C58.9215 1509.63 66.6047 1511.41 81.4813 1511.47C95.1312 1511.52 103.218 1509.85 114.596 1504.65C136.856 1494.47 152.178 1476.72 159.652 1452.46L162.367 1443.66L162.734 1396.42L163.102 1349.18H81.5513H0V1393.58ZM1534.63 1484.62C1497.49 1504.25 1496.15 1505.06 1495.84 1508.05L1495.53 1511.14H1532.5H1569.46L1570.03 1507.39C1570.91 1501.55 1573.83 1465.01 1573.45 1464.63C1573.26 1464.44 1555.8 1473.44 1534.63 1484.62ZM779.888 1473.32C779.924 1474.6 780.714 1483.52 781.641 1493.14L783.327 1510.64L813.568 1510.9L843.807 1511.17L843.796 1507.91C843.784 1504.65 843.744 1504.62 812.679 1488.15C795.572 1479.07 781.18 1471.5 780.698 1471.32C780.216 1471.13 779.851 1472.03 779.888 1473.32Z" fill="black"/>
</svg>
