{
  "accessors": [
    {
      "bufferView": 2,
      "componentType": 5126,
      "count": 1515,
      "max": [
        0.3719576895236969,
        0.5687998533248901,
        3.2818751335144043
      ],
      "min": [
        -0.5285506248474121,
        -0.4010791778564453,
        -0.9557713270187378
      ],
      "type": "VEC3"
    },
    {
      "bufferView": 2,
      "byteOffset": 18180,
      "componentType": 5126,
      "count": 1515,
      "max": [
        0.9999427199363708,
        0.9996352791786194,
        0.9996293783187866
      ],
      "min": [
        -0.9998296499252319,
        -0.9998747110366821,
        -0.9951010346412659
      ],
      "type": "VEC3"
    },
    {
      "bufferView": 3,
      "componentType": 5126,
      "count": 1515,
      "max": [
        0.6950861215591431,
        0.9999294281005859,
        0.9999779462814331,
        -1.0
      ],
      "min": [
        -0.7880886197090149,
        -0.9969557523727417,
        -0.8779346942901611,
        -1.0
      ],
      "type": "VEC4"
    },
    {
      "bufferView": 1,
      "componentType": 5126,
      "count": 1515,
      "max": [
        1.0,
        1.0
      ],
      "min": [
        0.0,
        0.15820062160491943
      ],
      "type": "VEC2"
    },
    {
      "bufferView": 1,
      "byteOffset": 12120,
      "componentType": 5126,
      "count": 1515,
      "max": [
        1.0,
        1.0
      ],
      "min": [
        0.0,
        0.15820062160491943
      ],
      "type": "VEC2"
    },
    {
      "bufferView": 1,
      "byteOffset": 24240,
      "componentType": 5126,
      "count": 1515,
      "max": [
        1.0,
        1.0
      ],
      "min": [
        0.0,
        0.15820062160491943
      ],
      "type": "VEC2"
    },
    {
      "bufferView": 1,
      "byteOffset": 36360,
      "componentType": 5126,
      "count": 1515,
      "max": [
        1.0,
        1.0
      ],
      "min": [
        0.0,
        0.15820062160491943
      ],
      "type": "VEC2"
    },
    {
      "bufferView": 0,
      "componentType": 5125,
      "count": 8448,
      "type": "SCALAR"
    }
  ],
  "asset": {
    "extras": {
      "author": "blocksmc.com (https://sketchfab.com/blocksmc.com)",
      "license": "CC-BY-4.0 (http://creativecommons.org/licenses/by/4.0/)",
      "source": "https://sketchfab.com/3d-models/finger-8e2efa3411cb4a25a95f390ec819739e",
      "title": "Finger"
    },
    "generator": "Sketchfab-15.12.0",
    "version": "2.0"
  },
  "bufferViews": [
    {
      "buffer": 0,
      "byteLength": 33792,
      "name": "floatBufferViews",
      "target": 34963
    },
    {
      "buffer": 0,
      "byteLength": 48480,
      "byteOffset": 33792,
      "byteStride": 8,
      "name": "floatBufferViews",
      "target": 34962
    },
    {
      "buffer": 0,
      "byteLength": 36360,
      "byteOffset": 82272,
      "byteStride": 12,
      "name": "floatBufferViews",
      "target": 34962
    },
    {
      "buffer": 0,
      "byteLength": 24240,
      "byteOffset": 118632,
      "byteStride": 16,
      "name": "floatBufferViews",
      "target": 34962
    }
  ],
  "buffers": [
    {
      "byteLength": 142872,
      "uri": "scene.bin"
    }
  ],
  "extensionsRequired": [
    "KHR_materials_pbrSpecularGlossiness"
  ],
  "extensionsUsed": [
    "KHR_materials_pbrSpecularGlossiness"
  ],
  "images": [
    {
      "uri": "textures/Material.027_diffuse.png"
    },
    {
      "uri": "textures/Material.027_specularGlossiness.png"
    },
    {
      "uri": "textures/Material.027_normal.png"
    }
  ],
  "materials": [
    {
      "doubleSided": true,
      "extensions": {
        "KHR_materials_pbrSpecularGlossiness": {
          "diffuseFactor": [
            1.0,
            1.0,
            1.0,
            1.0
          ],
          "diffuseTexture": {
            "index": 0
          },
          "glossinessFactor": 1.0,
          "specularFactor": [
            1.0,
            1.0,
            1.0
          ],
          "specularGlossinessTexture": {
            "index": 1
          }
        }
      },
      "name": "Material.027",
      "normalTexture": {
        "index": 2,
        "scale": 0.8
      }
    }
  ],
  "meshes": [
    {
      "name": "Object_0",
      "primitives": [
        {
          "attributes": {
            "NORMAL": 1,
            "POSITION": 0,
            "TANGENT": 2,
            "TEXCOORD_0": 3,
            "TEXCOORD_1": 4,
            "TEXCOORD_2": 5,
            "TEXCOORD_3": 6
          },
          "indices": 7,
          "material": 0,
          "mode": 4
        }
      ]
    }
  ],
  "nodes": [
    {
      "children": [
        1
      ],
      "matrix": [
        1.0,
        0.0,
        0.0,
        0.0,
        0.0,
        2.220446049250313e-16,
        -1.0,
        0.0,
        0.0,
        1.0,
        2.220446049250313e-16,
        0.0,
        0.0,
        0.0,
        0.0,
        1.0
      ],
      "name": "Sketchfab_model"
    },
    {
      "children": [
        2
      ],
      "name": "root"
    },
    {
      "children": [
        3
      ],
      "matrix": [
        1.0,
        0.0,
        0.0,
        0.0,
        0.0,
        2.220446049250313e-16,
        1.0,
        0.0,
        0.0,
        -1.0,
        2.220446049250313e-16,
        0.0,
        0.0,
        0.0,
        0.0,
        1.0
      ],
      "name": "GLTF_SceneRootNode"
    },
    {
      "children": [
        4
      ],
      "name": "Cube.041_0"
    },
    {
      "mesh": 0,
      "name": "Object_4"
    }
  ],
  "samplers": [
    {
      "magFilter": 9729,
      "minFilter": 9987,
      "wrapS": 10497,
      "wrapT": 10497
    }
  ],
  "scene": 0,
  "scenes": [
    {
      "name": "Sketchfab_Scene",
      "nodes": [
        0
      ]
    }
  ],
  "textures": [
    {
      "sampler": 0,
      "source": 0
    },
    {
      "sampler": 0,
      "source": 1
    },
    {
      "sampler": 0,
      "source": 2
    }
  ]
}
